<?xml version="1.0" encoding="UTF-8"?>
<svg width="200" height="60" viewBox="0 0 200 60" xmlns="http://www.w3.org/2000/svg">
  <!-- Cegeka logo with brand colors: primary #003d7a (blue) and accent #ff6600 (orange) -->
  <rect x="0" y="0" width="200" height="60" fill="#ffffff"/>
  <path d="M30,15 C21.716,15 15,21.716 15,30 C15,38.284 21.716,45 30,45 C33.764,45 37.2,43.5 39.75,41.25 L36,37.5 C34.5,39 32.25,40 30,40 C24.477,40 20,35.523 20,30 C20,24.477 24.477,20 30,20 C32.25,20 34.5,21 36,22.5 L39.75,18.75 C37.2,16.5 33.764,15 30,15 Z" fill="#003d7a"/>
  <path d="M55,15 L55,45 L75,45 L75,40 L60,40 L60,32.5 L72.5,32.5 L72.5,27.5 L60,27.5 L60,20 L75,20 L75,15 L55,15 Z" fill="#003d7a"/>
  <path d="M85,15 L85,45 L90,45 L90,35 L95,35 L100,45 L106,45 L100,33.75 C103,32.5 105,29.5 105,26.25 C105,20 100,15 93.75,15 L85,15 Z M90,20 L93.75,20 C97.25,20 100,22.75 100,26.25 C100,29.75 97.25,32.5 93.75,32.5 L90,32.5 L90,20 Z" fill="#003d7a"/>
  <path d="M115,15 L115,45 L135,45 L135,40 L120,40 L120,32.5 L132.5,32.5 L132.5,27.5 L120,27.5 L120,20 L135,20 L135,15 L115,15 Z" fill="#003d7a"/>
  <path d="M145,15 L145,45 L150,45 L150,32.5 L162.5,45 L170,45 L155,30 L170,15 L162.5,15 L150,27.5 L150,15 L145,15 Z" fill="#003d7a"/>
  <path d="M180,15 L170,30 L180,45 L186,45 L176,30 L186,15 L180,15 Z" fill="#ff6600"/>
</svg>